<svg version="1.1" id="Layer_1"
    xmlns="http://www.w3.org/2000/svg"
    xmlns:xlink="http://www.w3.org/1999/xlink" x="0px" y="0px" style="enable-background:new 0 0 283.46 283.46;" xml:space="preserve" viewBox="19.54 95.94 244.38 91.6">
    <style type="text/css"> 	.st0{fill:#9C2022;} 	.st1{fill:#0F527C;} 	.st2{fill:#A2A2A2;} 	.st3{fill:none;stroke:#9C2022;stroke-miterlimit:10;} 	.st4{fill:#F1F2F2;} </style>
    <g>
        <g>
            <g>
                <path class="st1" d="M142.47,170.86v-24.72h9.18c4.39,0,7.34,1.7,7.34,6.43c0,2.23-0.72,4.03-2.72,5.05v0.07 				c3.54,0.46,5.05,2.85,5.05,6.3c0,5.18-4.43,6.89-8.95,6.89H142.47z M148.9,155.84h0.72c1.7,0,3.48-0.3,3.48-2.39 				c0-2.26-2-2.39-3.74-2.39h-0.46V155.84z M148.9,165.94h0.82c1.9,0,5.11,0.1,5.11-2.62c0-2.98-3.18-2.69-5.28-2.69h-0.66V165.94z"></path>
                <path class="st1" d="M185.23,170.86h-8l-6.07-9.51h-0.07v9.51h-6.43v-24.72h9.61c4.89,0,8.59,2.33,8.59,7.61 				c0,3.41-1.9,6.36-5.41,6.98L185.23,170.86z M171.09,157.22h0.62c2.1,0,4.46-0.39,4.46-3.08c0-2.69-2.36-3.08-4.46-3.08h-0.62 				V157.22z"></path>
                <path class="st1" d="M193.39,170.86h-6.43v-24.72h6.43V170.86z"></path>
                <path class="st1" d="M197.59,146.14h9.11c6.89,0,12.56,5.41,12.56,12.36c0,6.95-5.7,12.36-12.56,12.36h-9.11V146.14z 				 M204.02,165.41h1.44c3.84,0,7.11-2.1,7.11-6.92c0-4.43-2.92-6.92-7.05-6.92h-1.51V165.41z"></path>
                <path class="st1" d="M246.9,157.05c-0.07,3.61-0.33,6.69-2.52,9.77c-2.43,3.38-6.07,4.85-10.2,4.85 				c-7.77,0-13.18-5.28-13.18-13.05c0-8.03,5.44-13.31,13.41-13.31c5.08,0,9.02,2.3,11.15,6.92l-6.1,2.56 				c-0.89-2.36-2.75-3.93-5.34-3.93c-4.23,0-6.43,4.03-6.43,7.8c0,3.84,2.3,7.74,6.52,7.74c2.79,0,4.92-1.44,5.18-4.3h-5.25v-5.05 				H246.9z"></path>
                <path class="st1" d="M256.28,151.58v4.13h7.25v5.44h-7.25v4.26h7.64v5.44h-14.07v-24.72h14.07v5.44H256.28z"></path>
            </g>
            <g>
                <path class="st2" d="M151.34,181.49c-0.02,1.2-0.11,2.22-0.84,3.24c-0.8,1.12-2.01,1.61-3.38,1.61c-2.58,0-4.37-1.75-4.37-4.33 				c0-2.66,1.8-4.41,4.45-4.41c1.69,0,2.99,0.76,3.7,2.29l-2.02,0.85c-0.29-0.78-0.91-1.3-1.77-1.3c-1.4,0-2.13,1.34-2.13,2.59 				c0,1.27,0.76,2.57,2.16,2.57c0.92,0,1.63-0.48,1.72-1.42h-1.74v-1.67H151.34z"></path>
                <path class="st2" d="M154.26,186.07h-1.98v-9.02h1.98V186.07z"></path>
                <path class="st2" d="M161.87,183.28c0,1.89-1.57,2.97-3.36,2.97c-1.78,0-3.36-1.07-3.36-2.97c0-1.9,1.57-2.98,3.36-2.98 				C160.3,180.3,161.87,181.38,161.87,183.28z M157.23,183.28c0,0.71,0.47,1.25,1.27,1.25c0.8,0,1.27-0.54,1.27-1.25 				c0-0.69-0.47-1.26-1.27-1.26C157.7,182.02,157.23,182.6,157.23,183.28z"></path>
                <path class="st2" d="M162.69,177.04h1.98v3.99c0.42-0.49,1.09-0.73,1.73-0.73c1.65,0,2.79,1.37,2.79,2.97 				c0,1.61-1.15,2.98-2.82,2.98c-0.65,0-1.33-0.25-1.69-0.8h-0.02v0.62h-1.98V177.04z M164.61,183.28c0,0.71,0.47,1.25,1.27,1.25 				c0.8,0,1.27-0.54,1.27-1.25c0-0.69-0.47-1.26-1.27-1.26C165.07,182.02,164.61,182.6,164.61,183.28z"></path>
                <path class="st2" d="M176.27,186.07h-1.98v-0.62h-0.02c-0.35,0.55-1.03,0.8-1.69,0.8c-1.65,0-2.82-1.38-2.82-2.98 				c0-1.6,1.14-2.97,2.79-2.97c0.64,0,1.32,0.24,1.73,0.73v-0.54h1.98V186.07z M171.81,183.28c0,0.71,0.47,1.25,1.27,1.25 				s1.27-0.54,1.27-1.25c0-0.69-0.47-1.26-1.27-1.26S171.81,182.6,171.81,183.28z"></path>
                <path class="st2" d="M179.57,186.07h-1.98v-9.02h1.98V186.07z"></path>
                <path class="st2" d="M188.08,182.85l1.99-4.98h2.32l-3.5,8.2h-1.65l-3.45-8.2h2.32L188.08,182.85z"></path>
                <path class="st2" d="M197.8,183.61h-4.16c0,0.8,0.42,1.24,1.24,1.24c0.42,0,0.73-0.14,0.95-0.51h1.9 				c-0.31,1.32-1.57,1.91-2.84,1.91c-1.85,0-3.23-1.04-3.23-2.97c0-1.86,1.27-2.98,3.09-2.98c1.94,0,3.05,1.2,3.05,3.1V183.61z 				 M195.96,182.47c-0.1-0.53-0.59-0.88-1.12-0.88c-0.58,0-1.05,0.3-1.17,0.88H195.96z"></path>
                <path class="st2" d="M200.68,177.04v4.15h0.02c0.46-0.61,1.01-0.89,1.78-0.89c1.41,0,2.1,0.93,2.1,2.35v3.41h-1.98v-2.86 				c0-0.65-0.1-1.33-0.89-1.33c-0.78,0-1.03,0.67-1.03,1.33v2.86h-1.98v-9.02H200.68z"></path>
                <path class="st2" d="M207.99,178.35c0,0.61-0.5,1.11-1.11,1.11c-0.61,0-1.11-0.5-1.11-1.11s0.5-1.11,1.11-1.11 				C207.49,177.24,207.99,177.74,207.99,178.35z M207.87,186.07h-1.98v-5.58h1.98V186.07z"></path>
                <path class="st2" d="M213.19,182.3c-0.29-0.22-0.64-0.39-1.02-0.39c-0.76,0-1.36,0.59-1.36,1.36c0,0.8,0.58,1.37,1.39,1.37 				c0.35,0,0.73-0.14,0.99-0.38v1.67c-0.43,0.22-0.91,0.32-1.39,0.32c-1.65,0-3.03-1.23-3.03-2.91c0-1.79,1.37-3.03,3.12-3.03 				c0.46,0,0.91,0.11,1.3,0.33V182.3z"></path>
                <path class="st2" d="M216.4,186.07h-1.98v-9.02h1.98V186.07z"></path>
                <path class="st2" d="M223.44,183.61h-4.16c0,0.8,0.42,1.24,1.24,1.24c0.42,0,0.73-0.14,0.95-0.51h1.9 				c-0.32,1.32-1.57,1.91-2.84,1.91c-1.85,0-3.23-1.04-3.23-2.97c0-1.86,1.27-2.98,3.09-2.98c1.93,0,3.05,1.2,3.05,3.1V183.61z 				 M221.6,182.47c-0.1-0.53-0.59-0.88-1.12-0.88c-0.58,0-1.05,0.3-1.17,0.88H221.6z"></path>
                <path class="st2" d="M231.37,186.07h-2.13v-6.39h-1.76v-1.8h5.65v1.8h-1.76V186.07z"></path>
                <path class="st2" d="M235.24,181.4h0.02c0.38-0.68,1.03-0.99,1.8-0.99h0.38v1.9c-0.27-0.15-0.53-0.19-0.84-0.19 				c-1.1,0-1.37,0.73-1.37,1.69v2.25h-1.98v-5.58h1.98V181.4z"></path>
                <path class="st2" d="M244.29,186.07h-1.98v-0.62h-0.02c-0.35,0.55-1.03,0.8-1.69,0.8c-1.65,0-2.82-1.38-2.82-2.98 				c0-1.6,1.14-2.97,2.79-2.97c0.64,0,1.32,0.24,1.73,0.73v-0.54h1.98V186.07z M239.83,183.28c0,0.71,0.47,1.25,1.27,1.25 				c0.8,0,1.27-0.54,1.27-1.25c0-0.69-0.47-1.26-1.27-1.26C240.3,182.02,239.83,182.6,239.83,183.28z"></path>
                <path class="st2" d="M249.8,185.45h-0.02c-0.35,0.55-1.03,0.8-1.68,0.8c-1.65,0-2.82-1.38-2.82-2.98c0-1.6,1.14-2.97,2.79-2.97 				c0.64,0,1.32,0.24,1.73,0.73v-3.99h1.98v9.02h-1.98V185.45z M247.32,183.28c0,0.71,0.47,1.25,1.27,1.25 				c0.8,0,1.27-0.54,1.27-1.25c0-0.69-0.47-1.26-1.27-1.26C247.79,182.02,247.32,182.6,247.32,183.28z"></path>
                <path class="st2" d="M258.75,183.61h-4.16c0,0.8,0.42,1.24,1.24,1.24c0.42,0,0.73-0.14,0.95-0.51h1.9 				c-0.32,1.32-1.57,1.91-2.84,1.91c-1.85,0-3.23-1.04-3.23-2.97c0-1.86,1.27-2.98,3.09-2.98c1.93,0,3.05,1.2,3.05,3.1V183.61z 				 M256.91,182.47c-0.1-0.53-0.59-0.88-1.12-0.88c-0.58,0-1.05,0.3-1.17,0.88H256.91z"></path>
                <path class="st2" d="M261.63,181.4h0.02c0.38-0.68,1.03-0.99,1.8-0.99h0.38v1.9c-0.27-0.15-0.53-0.19-0.84-0.19 				c-1.1,0-1.37,0.73-1.37,1.69v2.25h-1.98v-5.58h1.98V181.4z"></path>
            </g>
        </g>
        <g>
            <path class="st0" d="M90.43,186.38c-7.19,0.08-15.64,0.26-23.42,0.46l0.47-17.95c5.54-0.01,11.06,0.16,16.58,0.48L90.43,186.38z"></path>
            <path class="st0" d="M43.2,169.92c2.3-0.2,4.6-0.36,6.9-0.5l-0.69,17.9c-4.33,0.12-7.06,0.22-7.06,0.22L43.2,169.92z"></path>
            <path class="st0" d="M105.04,171.37c8.73,1.15,17.42,2.72,26.03,4.7c-2.94,5.97-9.22,8.48-17.33,9.54L105.04,171.37z"></path>
            <path class="st0" d="M123.96,152.36c-8.18-5.37-19.08-5.04-19.08-5.04s16.45-5.59,16.45-23.88c0-28.5-27.74-27.5-27.74-27.5H46.72 			l-2.97,62.32c-8.04,2.12-16.11,4.66-24.21,7.58c7.97-1.83,16-3.31,24.06-4.42c2.28-0.31,4.55-0.6,6.84-0.86 			c5.75-0.65,11.51-1.12,17.28-1.41c4.12-0.21,8.23-0.32,12.36-0.34c5.85-0.04,11.7,0.1,17.54,0.45c11.53,0.65,23.02,2.04,34.4,4.14 			C130.67,158.23,127.58,154.74,123.96,152.36z M92.47,150.8c-4.99,0.18-9.98,0.54-14.98,1.08l-5.33-14.23c0,0,24.4,5.69,24.4-12.38 			c0-9.22-5.25-11.58-14.25-11.58c-8.99,0-13.42,0-13.42,0l-1.02,39.48c-5.76,0.89-11.53,2.03-17.3,3.38l2.1-54.74h33.06 			c0,0,31.42-2.71,27.27,24.17c-4.56,18.17-24.31,18.67-24.31,18.67L92.47,150.8z"></path>
        </g>
    </g>
</svg>